<svg id="Capa_1" enable-background="new 0 0 512 512" height="512" viewBox="0 0 512 512" width="512" xmlns="http://www.w3.org/2000/svg"><g><g><g><g><g><path d="m368.129 504.5h-224.258c-16.569 0-30-13.431-30-30v-437c0-16.569 13.431-30 30-30h224.259c16.569 0 30 13.431 30 30v437c-.001 16.569-13.432 30-30.001 30z" fill="#d8ecfe"/><path d="m368.129 7.5h-30c16.569 0 30 13.431 30 30v437c0 16.569-13.431 30-30 30h30c16.569 0 30-13.431 30-30v-437c0-16.569-13.431-30-30-30z" fill="#c4e2ff"/></g><path d="m304.096 47.128h-96.191c-5.523 0-10-4.477-10-10v-29.628h116.191v29.628c0 5.523-4.478 10-10 10z" fill="#3f6e90"/></g><g><g><circle cx="256" cy="188.314" fill="#fff" r="94.5"/><path d="m256 93.814c-5.105 0-10.114.41-15 1.19 45.062 7.188 79.5 46.225 79.5 93.31 0 47.086-34.438 86.123-79.5 93.31 4.886.779 9.895 1.19 15 1.19 52.191 0 94.5-42.309 94.5-94.5s-42.309-94.5-94.5-94.5z" fill="#f9f7f8"/><path d="m256 203.878c-32.224 0-58.683 24.639-61.592 56.104 16.541 14.229 38.061 22.832 61.592 22.832s45.05-8.603 61.592-22.832c-2.909-31.464-29.368-56.104-61.592-56.104z" fill="#f58a97"/><path d="m256 203.878c-32.224 0-58.683 24.639-61.592 56.104 16.541 14.229 38.061 22.832 61.592 22.832s45.05-8.603 61.592-22.832c-2.909-31.464-29.368-56.104-61.592-56.104z" fill="#f58a97"/><path d="m308.899 233.686c-3.993 7.287-12.484 20.471-28.094 31.608-11.579 8.261-25.101 13.974-39.75 16.32 4.87.774 9.857 1.2 14.945 1.2 23.531 0 45.05-8.603 61.592-22.832-.884-9.565-3.956-18.492-8.693-26.296z" fill="#f07281"/><path d="m256 216.905c-18.025 0-32.638-14.612-32.638-32.638v-12.448c0-18.025 14.612-32.638 32.638-32.638 18.025 0 32.638 14.612 32.638 32.638v12.448c0 18.025-14.613 32.638-32.638 32.638z" fill="#ffcebf"/><path d="m256 139.181c-5.41 0-10.508 1.324-15 3.654 10.476 5.433 17.638 16.369 17.638 28.984v12.448c0 12.615-7.162 23.551-17.638 28.984 4.492 2.33 9.59 3.654 15 3.654 18.025 0 32.638-14.612 32.638-32.638v-12.448c0-18.026-14.613-32.638-32.638-32.638z" fill="#ffb09e"/></g><path d="m343.129 362.814h-174.258c-5.523 0-10-4.477-10-10v-15c0-5.523 4.477-10 10-10h174.259c5.523 0 10 4.477 10 10v15c-.001 5.523-4.478 10-10.001 10z" fill="#fff"/><path d="m343.129 427.814h-174.258c-5.523 0-10-4.477-10-10v-15c0-5.523 4.477-10 10-10h174.259c5.523 0 10 4.477 10 10v15c-.001 5.523-4.478 10-10.001 10z" fill="#fff"/><g fill="#f9f7f8"><path d="m343.129 392.814h-30c5.523 0 10 4.477 10 10v15c0 5.523-4.477 10-10 10h30c5.523 0 10-4.477 10-10v-15c0-5.523-4.477-10-10-10z"/><path d="m343.129 327.814h-30c5.523 0 10 4.477 10 10v15c0 5.523-4.477 10-10 10h30c5.523 0 10-4.477 10-10v-15c0-5.523-4.477-10-10-10z"/></g></g></g></g><path d="m398.129 335.026c4.142 0 7.5-3.358 7.5-7.5v-290.026c0-20.678-16.822-37.5-37.5-37.5h-224.258c-20.678 0-37.5 16.822-37.5 37.5v437c0 20.678 16.822 37.5 37.5 37.5h224.259c20.678 0 37.5-16.822 37.5-37.5v-111.974c0-4.142-3.358-7.5-7.5-7.5s-7.5 3.358-7.5 7.5v111.974c0 12.407-10.093 22.5-22.5 22.5h-224.259c-12.407 0-22.5-10.093-22.5-22.5v-437c0-12.407 10.093-22.5 22.5-22.5h46.534v22.128c0 9.649 7.851 17.5 17.5 17.5h96.191c9.649 0 17.5-7.851 17.5-17.5v-22.128h46.534c12.407 0 22.5 10.093 22.5 22.5v290.026c-.001 4.142 3.357 7.5 7.499 7.5zm-91.533-297.898c0 1.378-1.122 2.5-2.5 2.5h-96.191c-1.378 0-2.5-1.122-2.5-2.5v-22.128h101.191zm54.033 365.686c0-9.649-7.851-17.5-17.5-17.5h-174.258c-9.649 0-17.5 7.851-17.5 17.5v15c0 9.649 7.851 17.5 17.5 17.5h174.259c9.649 0 17.5-7.851 17.5-17.5v-15zm-15 15c0 1.378-1.122 2.5-2.5 2.5h-174.258c-1.378 0-2.5-1.122-2.5-2.5v-15c0-1.378 1.122-2.5 2.5-2.5h174.259c1.378 0 2.5 1.122 2.5 2.5v15zm-152.465-300.479c-2.982-2.875-7.73-2.789-10.604.194-18.417 19.104-28.56 44.242-28.56 70.785 0 55.84 46.579 102 102 102 55.708 0 102-45.665 102-102 0-56.243-45.757-102-102-102-15.058 0-29.562 3.207-43.107 9.532-3.753 1.752-5.375 6.216-3.623 9.969 1.753 3.753 6.217 5.375 9.969 3.623 11.544-5.391 23.913-8.124 36.762-8.124 47.972 0 87 39.028 87 87 0 21.548-7.878 41.289-20.9 56.501-5.301-16.572-16.774-30.802-31.973-39.452 3.806-6.134 6.011-13.361 6.011-21.096v-12.448c0-22.132-18.006-40.138-40.138-40.138s-40.138 18.006-40.138 40.138v12.448c0 7.735 2.205 14.962 6.011 21.096-15.198 8.651-26.672 22.881-31.973 39.452-13.022-15.212-20.9-34.953-20.9-56.501 0-22.639 8.65-44.08 24.358-60.374 2.874-2.982 2.787-7.73-.195-10.605zm37.698 54.483c0-13.861 11.277-25.138 25.138-25.138s25.138 11.277 25.138 25.138v12.448c0 13.861-11.277 25.138-25.138 25.138s-25.138-11.277-25.138-25.138zm1.587 44.922c6.62 4.815 14.757 7.665 23.551 7.665s16.93-2.85 23.551-7.665c15.813 7.639 27.16 22.738 30.064 40.045-14.785 11.603-33.406 18.529-53.615 18.529s-38.829-6.927-53.615-18.529c2.904-17.308 14.251-32.406 30.064-40.045zm-73.578 235.26c-4.142 0-7.5 3.358-7.5 7.5s3.358 7.5 7.5 7.5h194.259c4.142 0 7.5-3.358 7.5-7.5s-3.358-7.5-7.5-7.5zm201.758-114.186c0-9.649-7.851-17.5-17.5-17.5h-174.258c-9.649 0-17.5 7.851-17.5 17.5v15c0 9.649 7.851 17.5 17.5 17.5h174.259c9.649 0 17.5-7.851 17.5-17.5v-15zm-15 15c0 1.378-1.122 2.5-2.5 2.5h-174.258c-1.378 0-2.5-1.122-2.5-2.5v-15c0-1.378 1.122-2.5 2.5-2.5h174.259c1.378 0 2.5 1.122 2.5 2.5v15z"/></g></svg>