<?xml version="1.0" encoding="UTF-8" standalone="no"?>
<!DOCTYPE svg PUBLIC "-//W3C//DTD SVG 1.1//EN" "http://www.w3.org/Graphics/SVG/1.1/DTD/svg11.dtd">
<svg version="1.1" xmlns="http://www.w3.org/2000/svg" xmlns:xlink="http://www.w3.org/1999/xlink" preserveAspectRatio="xMidYMid meet" viewBox="0 0 1024 1024" width="1024" height="1024"><defs><path d="M0 0L1024 0L1024 1024L0 1024L0 0Z" id="j2qAcGkHRz"></path><path d="M258 769.07C182.89 769.07 121.78 707.97 121.78 632.86C121.78 557.75 182.89 496.64 258 496.64C268.56 496.64 279.07 497.88 289.3 500.3C284.44 482 281.99 463.2 281.99 444.09C281.99 322.14 381.2 222.93 503.15 222.93C551.31 222.93 597.1 238.14 635.55 266.93C669.52 292.36 695.84 327.65 710.57 367.22C817.08 372.14 902.22 460.33 902.22 568.04C902.22 678.89 812.04 769.07 701.19 769.07C612.55 769.07 302.32 769.07 258 769.07ZM154.15 632.86C154.15 690.12 200.74 736.71 258 736.71C302.32 736.71 656.87 736.71 701.19 736.71C794.19 736.71 869.85 661.04 869.85 568.04C869.85 475.11 794.3 399.49 701.39 399.37C701.37 399.38 701.22 399.39 701.2 399.39C700.52 399.44 699.83 399.48 699.14 399.49C699.08 399.49 699.02 399.49 698.96 399.49C691.87 399.49 685.6 394.87 683.5 388.1C671.82 350.44 647.91 316.61 616.16 292.84C583.35 268.28 544.27 255.3 503.15 255.3C399.05 255.3 314.36 339.99 314.36 444.09C314.36 470.75 319.96 496.73 331 521.3C333.86 527.66 332.32 535.14 327.18 539.85C322.04 544.57 314.46 545.47 308.37 542.08C293 533.53 275.58 529.01 258 529.01C200.74 529.01 154.15 575.6 154.15 632.86Z" id="b1bBFbBRWs"></path><path d="M422.63 451.44C410.27 451.44 400.2 461.5 400.2 473.87C400.2 491.1 400.2 628.9 400.2 646.13C400.2 658.5 410.27 668.56 422.63 668.56C453.31 668.56 698.69 668.56 729.37 668.56C741.73 668.56 751.8 658.5 751.8 646.13C751.8 628.9 751.8 491.1 751.8 473.87C751.8 461.5 741.74 451.44 729.37 451.44C668.02 451.44 453.31 451.44 422.63 451.44ZM422.63 654.55C417.99 654.55 414.21 650.77 414.21 646.13C414.21 628.9 414.21 491.1 414.21 473.87C414.21 469.23 417.99 465.45 422.63 465.45C453.31 465.45 698.69 465.45 729.37 465.45C734.01 465.45 737.79 469.23 737.79 473.87C737.79 485.36 737.79 542.77 737.79 646.13C737.79 646.13 737.79 646.13 737.79 646.13C737.79 650.77 734.01 654.55 729.37 654.55C668.02 654.55 453.31 654.55 422.63 654.55Z" id="hpJ4PuXKB"></path><path d="M613.77 509.47C609.9 509.47 606.77 512.61 606.77 516.48C606.77 520.35 609.9 523.48 613.77 523.48C622.98 523.48 696.6 523.48 705.81 523.48C709.67 523.48 712.81 520.35 712.81 516.48C712.81 512.61 709.67 509.47 705.81 509.47C687.4 509.47 622.98 509.47 613.77 509.47Z" id="c34P1BqXlb"></path><path d="M613.77 554.45C609.9 554.45 606.77 557.58 606.77 561.45C606.77 565.32 609.9 568.45 613.77 568.45C622.98 568.45 696.6 568.45 705.81 568.45C709.67 568.45 712.81 565.32 712.81 561.45C712.81 557.58 709.67 554.45 705.81 554.45C687.4 554.45 622.98 554.45 613.77 554.45Z" id="d2gFpXue2"></path><path d="M700.67 599.42C696.8 599.42 693.67 602.55 693.67 606.42C693.67 610.29 696.8 613.43 700.67 613.43C701.22 613.43 705.63 613.43 706.19 613.43C710.05 613.43 713.19 610.29 713.19 606.42C713.19 602.55 710.05 599.42 706.19 599.42C705.08 599.42 701.22 599.42 700.67 599.42Z" id="f3BHXnaoxc"></path><path d="M613.77 599.42C609.9 599.42 606.77 602.55 606.77 606.42C606.77 610.29 609.9 613.43 613.77 613.43C619.8 613.43 668.03 613.43 674.06 613.43C677.92 613.43 681.06 610.29 681.06 606.42C681.06 602.55 677.92 599.42 674.06 599.42C662 599.42 619.8 599.42 613.77 599.42Z" id="c34C4Eqnq"></path><path d="M449.58 624.63C449.58 628.5 452.72 631.64 456.59 631.64C467.42 631.64 554.09 631.64 564.92 631.64C568.79 631.64 571.93 628.5 571.93 624.63C571.93 592.8 544.49 566.9 510.76 566.9C477.02 566.9 449.58 592.8 449.58 624.63ZM464.19 617.63C467.43 599.11 483.25 584.46 503.23 581.48C503.23 583.89 503.23 595.94 503.23 617.63C479.81 617.63 466.8 617.63 464.19 617.63ZM517.24 581.32C537.71 583.94 554.03 598.79 557.32 617.63C554.65 617.63 541.29 617.63 517.24 617.63C517.24 595.84 517.24 583.74 517.24 581.32Z" id="bsl2YVL02"></path><path d="M473.74 523.68C473.74 543.76 490.08 560.1 510.16 560.1C530.25 560.1 546.58 543.76 546.58 523.68C546.58 503.6 530.25 487.26 510.16 487.26C490.08 487.26 473.74 503.6 473.74 523.68ZM487.75 523.68C487.75 511.32 497.81 501.27 510.16 501.27C522.52 501.27 532.58 511.32 532.58 523.68C532.58 536.04 522.52 546.09 510.16 546.09C497.81 546.09 487.75 536.04 487.75 523.68Z" id="b1xpQsOMzT"></path></defs><g><g><g><use xlink:href="#j2qAcGkHRz" opacity="1" fill="#358ebc" fill-opacity="1"></use></g><g><use xlink:href="#b1bBFbBRWs" opacity="1" fill="#ffffff" fill-opacity="1"></use><g><use xlink:href="#b1bBFbBRWs" opacity="1" fill-opacity="0" stroke="#ffffff" stroke-width="1" stroke-opacity="0"></use></g></g><g><use xlink:href="#hpJ4PuXKB" opacity="1" fill="#ffffff" fill-opacity="1"></use><g><use xlink:href="#hpJ4PuXKB" opacity="1" fill-opacity="0" stroke="#000000" stroke-width="1" stroke-opacity="0"></use></g></g><g><use xlink:href="#c34P1BqXlb" opacity="1" fill="#ffffff" fill-opacity="1"></use><g><use xlink:href="#c34P1BqXlb" opacity="1" fill-opacity="0" stroke="#000000" stroke-width="1" stroke-opacity="0"></use></g></g><g><use xlink:href="#d2gFpXue2" opacity="1" fill="#ffffff" fill-opacity="1"></use><g><use xlink:href="#d2gFpXue2" opacity="1" fill-opacity="0" stroke="#000000" stroke-width="1" stroke-opacity="0"></use></g></g><g><use xlink:href="#f3BHXnaoxc" opacity="1" fill="#ffffff" fill-opacity="1"></use><g><use xlink:href="#f3BHXnaoxc" opacity="1" fill-opacity="0" stroke="#000000" stroke-width="1" stroke-opacity="0"></use></g></g><g><use xlink:href="#c34C4Eqnq" opacity="1" fill="#ffffff" fill-opacity="1"></use><g><use xlink:href="#c34C4Eqnq" opacity="1" fill-opacity="0" stroke="#000000" stroke-width="1" stroke-opacity="0"></use></g></g><g><use xlink:href="#bsl2YVL02" opacity="1" fill="#ffffff" fill-opacity="1"></use><g><use xlink:href="#bsl2YVL02" opacity="1" fill-opacity="0" stroke="#000000" stroke-width="1" stroke-opacity="0"></use></g></g><g><use xlink:href="#b1xpQsOMzT" opacity="1" fill="#ffffff" fill-opacity="1"></use><g><use xlink:href="#b1xpQsOMzT" opacity="1" fill-opacity="0" stroke="#000000" stroke-width="1" stroke-opacity="0"></use></g></g></g></g></svg>